2.5Hzlow3min_grf.mot
version=1
nRows=25
nColumns 19
inDegrees=yes
endheader
time	1_ground_force_vx	1_ground_force_vy	1_ground_force_vz	1_ground_force_px	1_ground_force_py	1_ground_force_pz	1_ground_torque_x	1_ground_torque_y	1_ground_torque_z	2_ground_force_vx	2_ground_force_vy	2_ground_force_vz	2_ground_force_px	2_ground_force_py	2_ground_force_pz	2_ground_torque_x	2_ground_torque_y	2_ground_torque_z
            0.005000	           -0.182722	            0.179051	            0.276364	           -0.140103	            0.006171	           -0.389240	           -0.030794	            0.083352	           -0.063786	           -8.676429	            5.226996	           23.017511	           -0.037506	            0.006077	           -0.621801	           -1.063997	           -6.946383	            1.144420
            0.005500	           -0.503883	            0.359648	            0.186221	           -0.140103	            0.006171	           -0.389240	            0.010626	           -0.037116	           -0.040498	           -8.863287	            5.043175	           22.735365	           -0.037506	            0.006077	           -0.621801	           -1.120218	           -6.975213	            1.219743
            0.006000	           -0.503673	            1.080120	            0.326881	           -0.140103	            0.006171	           -0.389240	           -0.089313	           -0.129968	            0.053316	           -8.956137	            4.857182	           23.157101	           -0.037506	            0.006077	           -0.621801	           -1.082827	           -6.918563	            1.276480
            0.006500	           -0.411853	           -0.902391	            0.226439	           -0.140103	            0.006171	           -0.389240	            0.028185	           -0.120099	           -0.074540	           -8.909931	            5.041332	           23.204666	           -0.037506	            0.006077	           -0.621801	           -1.026316	           -6.974672	            1.163153
            0.007000	           -0.182153	            0.178068	            0.505643	           -0.140103	            0.006171	           -0.389240	            0.072219	           -0.009296	           -0.008044	           -8.626358	            4.307260	           22.779566	           -0.037506	            0.006077	           -0.621801	           -1.045280	           -6.927409	            1.144479
            0.007500	           -0.182249	           -0.542602	            0.410839	           -0.140103	            0.006171	           -0.389240	            0.038802	            0.065045	           -0.101608	           -8.768820	            4.858528	           22.969309	           -0.037506	            0.006077	           -0.621801	           -1.120362	           -6.937335	            1.201028
            0.008000	           -0.457486	           -0.181927	            0.367212	           -0.140103	            0.006171	           -0.389240	            0.040633	            0.083162	           -0.056881	           -8.814984	            4.674043	           23.015600	           -0.037506	            0.006077	           -0.621801	           -1.139104	           -6.956107	            1.144418
            0.008500	           -0.136666	           -0.361934	            0.319787	           -0.140103	            0.006171	           -0.389240	            0.042748	            0.027848	           -0.043434	           -8.721929	            4.858362	           23.063145	           -0.037506	            0.006077	           -0.621801	           -1.064005	           -6.946315	            1.125569
            0.009000	           -0.457468	           -0.902793	            0.318264	           -0.140103	            0.006171	           -0.389240	           -0.069229	           -0.056076	            0.074407	           -8.582188	            5.044190	           22.735246	           -0.037506	            0.006077	           -0.621801	           -1.063938	           -6.956037	            1.200937
            0.009500	           -0.412114	           -0.721732	            0.135500	           -0.140103	            0.006171	           -0.389240	            0.088481	           -0.111169	            0.000535	           -8.954870	            4.489387	           23.015003	           -0.037506	            0.006077	           -0.621801	           -1.045195	           -6.946449	            1.182112
            0.010000	           -0.136259	           -0.723055	            0.455809	           -0.140103	            0.006171	           -0.389240	            0.056241	           -0.129847	            0.087456	           -8.954267	            4.305741	           22.873561	           -0.037506	            0.006077	           -0.621801	           -1.101381	           -6.993916	            1.181967
            0.010500	           -0.458040	            0.359656	            0.186107	           -0.140103	            0.006171	           -0.389240	            0.066949	           -0.046328	           -0.038723	           -8.816334	            5.042507	           22.969986	           -0.037506	            0.006077	           -0.621801	           -1.158061	           -6.899727	            1.220029
            0.011000	           -0.182476	           -0.542209	            0.319128	           -0.140103	            0.006171	           -0.389240	            0.042937	            0.110856	           -0.007431	           -8.675161	            4.859201	           22.875413	           -0.037506	            0.006077	           -0.621801	           -1.101711	           -6.917824	            1.050286
            0.011500	           -0.319843	           -0.182097	            0.412727	           -0.140103	            0.006171	           -0.389240	            0.020195	            0.110469	            0.061939	           -8.911528	            5.411804	           22.595915	           -0.037506	            0.006077	           -0.621801	           -1.063972	           -6.946584	            1.200970
            0.012000	           -0.273788	           -0.723082	            0.456150	           -0.140103	            0.006171	           -0.389240	            0.018272	            0.074082	           -0.067825	           -8.910013	            5.042002	           23.016954	           -0.037506	            0.006077	           -0.621801	           -0.951252	           -6.946245	            1.219773
            0.012500	           -0.135998	           -0.903714	            0.546747	           -0.140103	            0.006171	           -0.389240	            0.052205	           -0.083224	           -0.006319	           -8.721429	            4.675553	           22.687063	           -0.037506	            0.006077	           -0.621801	           -0.970138	           -6.927138	            1.144447
            0.013000	           -0.228613	           -0.181293	            0.229075	           -0.140103	            0.006171	           -0.389240	            0.008886	           -0.175317	           -0.104531	           -8.861211	            4.490060	           22.921107	           -0.037506	            0.006077	           -0.621801	           -1.158070	           -6.899660	            1.201179
            0.013500	           -0.412015	           -1.262529	            0.133181	           -0.140103	            0.006171	           -0.389240	            0.013647	           -0.111023	           -0.036856	           -8.720038	            4.306754	           22.826534	           -0.037506	            0.006077	           -0.621801	           -1.064064	           -6.936661	            1.069053
            0.014000	           -0.365342	           -1.444162	            0.453286	           -0.140103	            0.006171	           -0.389240	           -0.037343	           -0.000321	            0.022101	           -8.721367	            4.675051	           22.827848	           -0.037506	            0.006077	           -0.621801	           -1.045280	           -6.927409	            1.144479
            0.014500	           -0.320413	           -0.181114	            0.183447	           -0.140103	            0.006171	           -0.389240	            0.029648	            0.092541	           -0.069748	           -8.863225	            5.042673	           22.876150	           -0.037506	            0.006077	           -0.621801	           -1.120346	           -6.937470	            1.238728
            0.015000	           -0.365249	            0.537974	            0.645212	           -0.140103	            0.006171	           -0.389240	            0.178574	            0.101808	           -0.072058	           -8.769525	            5.043011	           22.876110	           -0.037506	            0.006077	           -0.621801	           -1.120371	           -6.937268	            1.182178
            0.015500	           -0.364985	           -0.904152	            0.639028	           -0.140103	            0.006171	           -0.389240	           -0.045609	            0.018332	           -0.015414	           -8.957569	            5.226315	           22.923775	           -0.037506	            0.006077	           -0.621801	           -1.101595	           -6.927949	            1.238754
            0.016000	           -0.227993	           -1.083408	            0.408634	           -0.140103	            0.006171	           -0.389240	            0.001589	           -0.129015	           -0.123081	           -8.910678	            5.226150	           23.017611	           -0.037506	            0.006077	           -0.621801	           -1.045272	           -6.927476	            1.163329
            0.016500	           -0.320086	           -0.722304	            0.272840	           -0.140103	            0.006171	           -0.389240	           -0.011185	           -0.129709	            0.023410	           -8.720120	            4.307424	           22.638821	           -0.037506	            0.006077	           -0.621801	           -1.101602	           -6.937066	            1.144469
            0.017000	           -0.319858	           -0.722698	            0.364552	           -0.140103	            0.006171	           -0.389240	            0.116054	           -0.009114	           -0.070379	           -8.392068	            4.307771	           22.873322	           -0.037506	            0.006077	           -0.621801	           -1.045279	           -6.936593	            1.069045
